# xmcd
#
# Track frame offsets: 
#        150
#        2977
#        21775
#        41889
#        60013
#        77415
#        99619
#        105708
#        122466
#        136334
#        155664
#        177393
#        194808
#        203016
#        219573
#
# Disc length: 3228 seconds
#
# Revision: 6
# Processed by: cddbd v1.5.2PL0 Copyright (c) Steve Scherf et al.
# Submitted via: ExactAudioCopy v1.0b3
#
DISCID=ca0c9a0f
DTITLE=張敬軒 - My Way[第三版]
DYEAR=2008
DGENRE=Pop
TTITLE0=Intro[音]
TTITLE1=My Way[國]
TTITLE2=斷點[國]
TTITLE3=自愛[國]
TTITLE4=On Fire(Have You Ever)[國]
TTITLE5=明瞭[國]
TTITLE6=Interlude[音]
TTITLE7=Paris[國]
TTITLE8=My Way[國][Reprise Version]
TTITLE9=期待[國]
TTITLE10=聲音[國]
TTITLE11=釋放[國]
TTITLE12=Outro[英]
TTITLE13=透露[粵]
TTITLE14=太遠[國]
EXTD=
EXTT0=
EXTT1=
EXTT2=
EXTT3=
EXTT4=
EXTT5=
EXTT6=
EXTT7=
EXTT8=
EXTT9=
EXTT10=
EXTT11=
EXTT12=
EXTT13=
EXTT14=
PLAYORDER=
